<?xml version="1.0" encoding="UTF-8" standalone="no"?>
<svg
   width="125"
   height="26"
   viewBox="0 0 125 26"
   fill="none"
   version="1.1"
   id="svg6"
   sodipodi:docname="logo.svg"
   inkscape:version="1.1.1 (1:1.1+202109281949+c3084ef5ed)"
   xmlns:inkscape="http://www.inkscape.org/namespaces/inkscape"
   xmlns:sodipodi="http://sodipodi.sourceforge.net/DTD/sodipodi-0.dtd"
   xmlns="http://www.w3.org/2000/svg"
   xmlns:svg="http://www.w3.org/2000/svg">
  <defs
     id="defs10" />
  <sodipodi:namedview
     id="namedview8"
     pagecolor="#000000"
     bordercolor="#666666"
     borderopacity="1.0"
     inkscape:pageshadow="2"
     inkscape:pageopacity="0"
     inkscape:pagecheckerboard="0"
     showgrid="false"
     inkscape:zoom="3.3234019"
     inkscape:cx="66.347679"
     inkscape:cy="27.682478"
     inkscape:window-width="1920"
     inkscape:window-height="1056"
     inkscape:window-x="0"
     inkscape:window-y="0"
     inkscape:window-maximized="1"
     inkscape:current-layer="svg6" />
  <text
     xml:space="preserve"
     style="font-weight:normal;font-size:19.0922px;line-height:1.25;font-family:Raleway;-inkscape-font-specification:Raleway;fill:#ffffff;stroke-width:1;font-style:normal;font-stretch:normal;font-variant:normal"
     x="0.22442544"
     y="19.873192"
     id="text969"><tspan
       sodipodi:role="line"
       id="tspan967"
       x="0.22442544"
       y="19.873192"
       style="font-style:normal;font-variant:normal;font-weight:normal;font-stretch:normal;font-family:Raleway;-inkscape-font-specification:Raleway;stroke-width:1">NineOne</tspan></text>
  <g
     aria-label="Blog"
     id="text4931"
     style="font-weight:600;font-size:19.0922px;line-height:1.25;font-family:Raleway;-inkscape-font-specification:'Raleway Semi-Bold';fill:#ff3b1d"
     transform="translate(-1.4879813)">
    <path
       d="m 95.464892,13.467079 q 0.544128,0.942456 0.439488,1.906747 -0.08811,0.954744 -0.704808,1.795805 -0.616703,0.84106 -1.608762,1.413826 l -5.605138,3.236127 -6.77773,-11.739374 6.051565,-3.4938719 q 0.826716,-0.477305 1.679697,-0.3745376 0.859968,0.076687 1.575057,0.589753 0.722076,0.4869854 1.151651,1.2310301 0.496397,0.8597851 0.489091,1.8781085 -3.18e-4,0.9922439 -0.600486,1.8237589 1.180424,-0.284695 2.217338,0.17484 1.043902,0.433453 1.693037,1.557788 z M 93.362976,14.21766 Q 93.076593,13.721629 92.632541,13.448904 92.195476,13.1501 91.68853,13.1121 91.188572,13.04802 90.709075,13.324856 l -3.869033,2.233787 2.071504,3.58795 3.753292,-2.166965 q 0.49603,-0.286383 0.742674,-0.737424 0.253633,-0.477122 0.239473,-0.998044 -0.0072,-0.547004 -0.284008,-1.026499 z m -9.377218,-3.602783 1.995135,3.455675 3.406072,-1.966496 q 0.462962,-0.267291 0.702617,-0.692251 0.23011,-0.441496 0.225496,-0.945884 Q 90.300918,9.9449975 90.014535,9.4489676 89.718606,8.9364033 89.300633,8.6706674 88.873115,8.3883964 88.401796,8.3739182 87.937463,8.3333596 87.491036,8.5911046 Z"
       id="path12044" />
    <path
       d="m 97.531045,5.9025669 h 2.100142 V 16.95695 q 0,0.763688 0.229106,0.973702 0.229107,0.210015 0.572767,0.210015 0.38184,0 0.70641,-0.07637 0.34366,-0.07637 0.59186,-0.190922 l 0.30547,1.661021 q -0.45821,0.190922 -1.08825,0.324568 -0.63004,0.133645 -1.126441,0.133645 -1.069164,0 -1.680114,-0.591858 -0.61095,-0.610951 -0.61095,-1.680114 z"
       id="path12046" />
    <path
       d="m 107.74535,20.030794 q -1.18372,0 -2.11924,-0.400936 -0.93552,-0.420028 -1.62283,-1.145532 -0.66823,-0.725503 -1.03098,-1.641929 -0.36276,-0.935518 -0.36276,-1.985589 0,-1.050071 0.36276,-1.985588 0.36275,-0.935518 1.03098,-1.64193 0.68731,-0.725503 1.62283,-1.126439 0.95461,-0.4200287 2.11924,-0.4200287 1.16462,0 2.10014,0.4200287 0.95461,0.400936 1.62284,1.126439 0.68731,0.706412 1.05007,1.64193 0.36275,0.935517 0.36275,1.985588 0,1.050071 -0.36275,1.985589 -0.36276,0.916426 -1.05007,1.641929 -0.66823,0.725504 -1.62284,1.145532 -0.93552,0.400936 -2.10014,0.400936 z m -2.97839,-5.154893 q 0,0.95461 0.40094,1.718297 0.40094,0.763688 1.06916,1.202809 0.66823,0.439121 1.50829,0.439121 0.82096,0 1.48919,-0.439121 0.68732,-0.458213 1.08825,-1.221901 0.40094,-0.78278 0.40094,-1.718298 0,-0.95461 -0.40094,-1.718298 -0.40093,-0.763688 -1.08825,-1.202808 -0.66823,-0.458213 -1.48919,-0.458213 -0.84006,0 -1.50829,0.458213 -0.66822,0.458213 -1.06916,1.221901 -0.40094,0.744595 -0.40094,1.718298 z"
       id="path12048" />
    <path
       d="m 118.70425,19.935333 q -1.01188,0 -1.85194,-0.400936 -0.84006,-0.420028 -1.45101,-1.12644 -0.59185,-0.706411 -0.93551,-1.622837 -0.32457,-0.916425 -0.32457,-1.928312 0,-1.069163 0.34366,-2.004681 0.34366,-0.935517 0.95461,-1.641929 0.63004,-0.725503 1.4701,-1.126439 0.84005,-0.4009367 1.87103,-0.4009367 1.20281,0 2.10015,0.5727657 0.91642,0.572766 1.50828,1.489192 V 9.8546521 h 1.85194 v 9.6988369 q 0,1.451008 -0.70641,2.462894 -0.68732,1.011887 -1.89013,1.546468 -1.2028,0.534582 -2.71109,0.534582 -1.66102,0 -2.74928,-0.572766 -1.08825,-0.572766 -1.85194,-1.565561 l 1.18372,-1.107347 q 0.57276,0.801872 1.4701,1.221901 0.91642,0.420028 1.9474,0.420028 0.85915,0 1.58465,-0.324567 0.7446,-0.305476 1.18372,-0.973702 0.43912,-0.649135 0.43912,-1.64193 v -1.527376 q -0.53458,0.897334 -1.4701,1.412823 -0.93552,0.496397 -1.9665,0.496397 z m 0.68732,-1.699205 q 0.47731,0 0.91643,-0.152738 0.43912,-0.17183 0.80187,-0.439121 0.38185,-0.286383 0.64914,-0.630042 0.26729,-0.362752 0.38184,-0.763688 v -2.615631 q -0.2482,-0.649135 -0.70641,-1.12644 -0.45821,-0.496397 -1.03098,-0.763688 -0.57277,-0.267291 -1.16462,-0.267291 -0.68732,0 -1.241,0.305475 -0.53458,0.286383 -0.91642,0.78278 -0.38185,0.477305 -0.59186,1.088256 -0.21001,0.61095 -0.21001,1.260085 0,0.687319 0.2291,1.279177 0.2482,0.591858 0.66823,1.069163 0.42003,0.458213 0.99279,0.725504 0.57277,0.248199 1.2219,0.248199 z"
       id="path12050" />
  </g>
  <path
     style="fill:none;stroke:#ff3b1d;stroke-width:0.5;stroke-linecap:round;stroke-linejoin:round;stroke-opacity:1;stroke-miterlimit:4;stroke-dasharray:none"
     d="M 2.1476713,22.870042 H 76.073725"
     id="path13878" />
  <rect
     style="fill:none;fill-opacity:1;stroke:#ffffff;stroke-width:0.2;stroke-linecap:round;stroke-linejoin:round;stroke-miterlimit:4;stroke-dasharray:4.80000007,4.80000007;stroke-opacity:1;stroke-dashoffset:0"
     id="rect17918"
     width="45.205032"
     height="21.50699"
     x="78.739403"
     y="3.5305274" />
</svg>
