<?xml version="1.0" encoding="UTF-8" standalone="no"?>
<svg
   width="125"
   height="26"
   viewBox="0 0 125 26"
   fill="none"
   version="1.1"
   id="svg6"
   inkscape:version="1.1.1 (1:1.1+202109281949+c3084ef5ed)"
   xmlns:inkscape="http://www.inkscape.org/namespaces/inkscape"
   xmlns:sodipodi="http://sodipodi.sourceforge.net/DTD/sodipodi-0.dtd"
   xmlns="http://www.w3.org/2000/svg"
   xmlns:svg="http://www.w3.org/2000/svg">
  <defs
     id="defs10" />
  <path
     d="M 3.2600851,8.780624 V 19.873192 H 1.9236312 V 6.3177303 H 3.0309787 L 11.927944,17.620312 V 6.3368225 h 1.336454 V 19.873192 h -1.240993 z"
     id="path841"
     style="font-size:19.0922px;line-height:1.25;font-family:Raleway;-inkscape-font-specification:Raleway;fill:#ffffff" />
  <path
     d="M 16.395506,19.873192 V 9.926156 h 1.298269 v 9.947036 z m 0,-12.0280857 v -1.90922 h 1.298269 v 1.90922 z"
     id="path843"
     style="font-size:19.0922px;line-height:1.25;font-family:Raleway;-inkscape-font-specification:Raleway;fill:#ffffff" />
  <path
     d="M 28.919959,19.873192 H 27.62169 v -5.55583 q 0,-1.756483 -0.51549,-2.558355 -0.515489,-0.820964 -1.622837,-0.820964 -0.763688,0 -1.508283,0.381844 -0.744596,0.362751 -1.317362,1.011886 -0.553674,0.630043 -0.801872,1.451007 v 6.090412 h -1.29827 V 9.926156 h 1.183716 v 2.25288 q 0.400937,-0.725504 1.050071,-1.260086 0.649135,-0.553673 1.4701,-0.859149 0.820964,-0.3054748 1.699205,-0.3054748 0.820965,0 1.393731,0.3054748 0.572766,0.305476 0.916425,0.878242 0.34366,0.553673 0.496398,1.355546 0.152737,0.78278 0.152737,1.756482 z"
     id="path845"
     style="font-size:19.0922px;line-height:1.25;font-family:Raleway;-inkscape-font-specification:Raleway;fill:#ffffff" />
  <path
     d="m 35.984041,20.064114 q -1.069163,0 -1.985589,-0.400936 -0.916425,-0.420029 -1.584652,-1.12644 -0.668227,-0.725504 -1.050071,-1.661021 -0.362752,-0.935518 -0.362752,-2.004681 0,-1.393731 0.630043,-2.558355 0.649134,-1.164624 1.775574,-1.851943 1.12644,-0.7064118 2.558355,-0.7064118 1.470099,0 2.558354,0.7064118 1.107348,0.706411 1.737391,1.871035 0.630042,1.145532 0.630042,2.52017 0,0.152738 0,0.305476 0,0.133645 -0.01909,0.210014 h -8.515121 q 0.09546,1.069163 0.591858,1.90922 0.51549,0.820964 1.317362,1.317361 0.820965,0.477305 1.775575,0.477305 0.973702,0 1.832851,-0.496397 0.878241,-0.496397 1.2219,-1.298269 l 1.12644,0.305475 q -0.305475,0.706411 -0.935518,1.279177 -0.630042,0.572766 -1.489191,0.897334 -0.840057,0.305475 -1.813759,0.305475 z m -3.665702,-5.632199 h 7.350496 q -0.07637,-1.088255 -0.591858,-1.90922 -0.496397,-0.820964 -1.317362,-1.279177 -0.801872,-0.477305 -1.775574,-0.477305 -0.973702,0 -1.775575,0.477305 -0.801872,0.458213 -1.317361,1.298269 -0.496398,0.820965 -0.572766,1.890128 z"
     id="path847"
     style="font-size:19.0922px;line-height:1.25;font-family:Raleway;-inkscape-font-specification:Raleway;fill:#ffffff" />
  <path
     d="m 48.623075,19.968653 q -1.431915,0 -2.596539,-0.572766 -1.164624,-0.572766 -2.004681,-1.546468 -0.840057,-0.992795 -1.29827,-2.214695 -0.458212,-1.240993 -0.458212,-2.539263 0,-1.355546 0.477304,-2.577447 0.477305,-1.2409928 1.336454,-2.1956028 0.878242,-0.9737021 2.042866,-1.5273759 1.164624,-0.572766 2.52017,-0.572766 1.431915,0 2.596539,0.5918582 1.164624,0.5918582 1.985589,1.5846525 0.840057,0.9927944 1.298269,2.214695 0.458213,1.221901 0.458213,2.501078 0,1.355546 -0.477305,2.596539 -0.477305,1.221901 -1.336454,2.195603 -0.859149,0.95461 -2.023773,1.508284 -1.164624,0.553674 -2.52017,0.553674 z m -5.021249,-6.873192 q 0,1.107348 0.362752,2.138326 0.362752,1.011887 1.030979,1.813759 0.668227,0.782781 1.584653,1.260085 0.935517,0.458213 2.042865,0.458213 1.164624,0 2.08105,-0.477305 0.935517,-0.496397 1.584652,-1.298269 0.668227,-0.820965 1.011887,-1.832851 0.343659,-1.011887 0.343659,-2.061958 0,-1.107347 -0.362751,-2.119234 Q 52.91882,9.9643404 52.231501,9.162468 51.563274,8.3605956 50.646848,7.9023829 49.730422,7.4441701 48.623075,7.4441701 q -1.145532,0 -2.08105,0.477305 -0.916425,0.4773049 -1.584652,1.2982695 -0.649135,0.8018724 -1.011887,1.8137594 -0.34366,1.011886 -0.34366,2.061957 z"
     id="path849"
     style="font-size:19.0922px;line-height:1.25;font-family:Raleway;-inkscape-font-specification:Raleway;fill:#ffffff" />
  <path
     d="m 65.519628,19.873192 h -1.29827 v -5.55583 q 0,-1.756483 -0.515489,-2.558355 -0.51549,-0.820964 -1.622837,-0.820964 -0.763688,0 -1.508284,0.381844 -0.744596,0.362751 -1.317362,1.011886 -0.553673,0.630043 -0.801872,1.451007 v 6.090412 h -1.29827 V 9.926156 h 1.183717 v 2.25288 q 0.400936,-0.725504 1.050071,-1.260086 0.649135,-0.553673 1.470099,-0.859149 0.820965,-0.3054748 1.699206,-0.3054748 0.820964,0 1.39373,0.3054748 0.572766,0.305476 0.916426,0.878242 0.34366,0.553673 0.496397,1.355546 0.152738,0.78278 0.152738,1.756482 z"
     id="path851"
     style="font-size:19.0922px;line-height:1.25;font-family:Raleway;-inkscape-font-specification:Raleway;fill:#ffffff" />
  <path
     d="m 72.583708,20.064114 q -1.069164,0 -1.985589,-0.400936 -0.916426,-0.420029 -1.584653,-1.12644 -0.668227,-0.725504 -1.050071,-1.661021 -0.362751,-0.935518 -0.362751,-2.004681 0,-1.393731 0.630042,-2.558355 0.649135,-1.164624 1.775575,-1.851943 1.126439,-0.7064118 2.558354,-0.7064118 1.4701,0 2.558355,0.7064118 1.107348,0.706411 1.73739,1.871035 0.630043,1.145532 0.630043,2.52017 0,0.152738 0,0.305476 0,0.133645 -0.01909,0.210014 H 68.95619 q 0.09546,1.069163 0.591858,1.90922 0.515489,0.820964 1.317362,1.317361 0.820964,0.477305 1.775574,0.477305 0.973702,0 1.832851,-0.496397 0.878241,-0.496397 1.221901,-1.298269 l 1.12644,0.305475 q -0.305475,0.706411 -0.935518,1.279177 -0.630043,0.572766 -1.489192,0.897334 -0.840056,0.305475 -1.813758,0.305475 z m -3.665703,-5.632199 h 7.350497 q -0.07637,-1.088255 -0.591858,-1.90922 -0.496397,-0.820964 -1.317362,-1.279177 -0.801872,-0.477305 -1.775574,-0.477305 -0.973703,0 -1.775575,0.477305 -0.801872,0.458213 -1.317362,1.298269 -0.496397,0.820965 -0.572766,1.890128 z"
     id="path853"
     style="font-size:19.0922px;line-height:1.25;font-family:Raleway;-inkscape-font-specification:Raleway;fill:#ffffff" />
  <path
     d="m 93.976911,13.467079 q 0.544128,0.942456 0.439488,1.906747 -0.08811,0.954744 -0.704808,1.795805 -0.616703,0.84106 -1.608762,1.413826 l -5.605138,3.236127 -6.77773,-11.739374 6.051565,-3.4938719 q 0.826716,-0.477305 1.679697,-0.3745376 0.859968,0.076687 1.575057,0.589753 0.722076,0.4869854 1.151651,1.2310301 0.496397,0.8597851 0.489091,1.8781085 -3.18e-4,0.9922439 -0.600486,1.8237589 1.180424,-0.284695 2.217338,0.17484 1.043902,0.433453 1.693037,1.557788 z M 91.874995,14.21766 Q 91.588612,13.721629 91.14456,13.448904 90.707495,13.1501 90.200549,13.1121 89.700591,13.04802 89.221094,13.324856 l -3.869033,2.233787 2.071504,3.58795 3.753292,-2.166965 q 0.49603,-0.286383 0.742674,-0.737424 0.253633,-0.477122 0.239473,-0.998044 -0.0072,-0.547004 -0.284008,-1.026499 z m -9.377218,-3.602783 1.995135,3.455675 3.406072,-1.966496 q 0.462962,-0.267291 0.702617,-0.692251 0.23011,-0.441496 0.225496,-0.945884 Q 88.812937,9.9449975 88.526554,9.4489676 88.230625,8.9364033 87.812652,8.6706674 87.385134,8.3883964 86.913815,8.3739182 86.449482,8.3333596 86.003055,8.5911046 Z"
     id="path12044"
     style="font-weight:600;font-size:19.0922px;line-height:1.25;font-family:Raleway;-inkscape-font-specification:'Raleway Semi-Bold';fill:#ff3b1d" />
  <path
     d="m 96.043064,5.9025669 h 2.100142 V 16.95695 q 0,0.763688 0.229106,0.973702 0.229107,0.210015 0.572767,0.210015 0.38184,0 0.70641,-0.07637 0.34366,-0.07637 0.591861,-0.190922 l 0.30547,1.661021 q -0.45821,0.190922 -1.088251,0.324568 -0.63004,0.133645 -1.126441,0.133645 -1.069164,0 -1.680114,-0.591858 -0.61095,-0.610951 -0.61095,-1.680114 z"
     id="path12046"
     style="font-weight:600;font-size:19.0922px;line-height:1.25;font-family:Raleway;-inkscape-font-specification:'Raleway Semi-Bold';fill:#ff3b1d" />
  <path
     d="m 106.25737,20.030794 q -1.18372,0 -2.11924,-0.400936 -0.93552,-0.420028 -1.62283,-1.145532 -0.66823,-0.725503 -1.03098,-1.641929 -0.36276,-0.935518 -0.36276,-1.985589 0,-1.050071 0.36276,-1.985588 0.36275,-0.935518 1.03098,-1.64193 0.68731,-0.725503 1.62283,-1.126439 0.95461,-0.4200287 2.11924,-0.4200287 1.16462,0 2.10014,0.4200287 0.95461,0.400936 1.62284,1.126439 0.68731,0.706412 1.05007,1.64193 0.36275,0.935517 0.36275,1.985588 0,1.050071 -0.36275,1.985589 -0.36276,0.916426 -1.05007,1.641929 -0.66823,0.725504 -1.62284,1.145532 -0.93552,0.400936 -2.10014,0.400936 z m -2.97839,-5.154893 q 0,0.95461 0.40094,1.718297 0.40094,0.763688 1.06916,1.202809 0.66823,0.439121 1.50829,0.439121 0.82096,0 1.48919,-0.439121 0.68732,-0.458213 1.08825,-1.221901 0.40094,-0.78278 0.40094,-1.718298 0,-0.95461 -0.40094,-1.718298 -0.40093,-0.763688 -1.08825,-1.202808 -0.66823,-0.458213 -1.48919,-0.458213 -0.84006,0 -1.50829,0.458213 -0.66822,0.458213 -1.06916,1.221901 -0.40094,0.744595 -0.40094,1.718298 z"
     id="path12048"
     style="font-weight:600;font-size:19.0922px;line-height:1.25;font-family:Raleway;-inkscape-font-specification:'Raleway Semi-Bold';fill:#ff3b1d" />
  <path
     d="m 117.21627,19.935333 q -1.01188,0 -1.85194,-0.400936 -0.84006,-0.420028 -1.45101,-1.12644 -0.59185,-0.706411 -0.93551,-1.622837 -0.32457,-0.916425 -0.32457,-1.928312 0,-1.069163 0.34366,-2.004681 0.34366,-0.935517 0.95461,-1.641929 0.63004,-0.725503 1.4701,-1.126439 0.84005,-0.4009367 1.87103,-0.4009367 1.20281,0 2.10015,0.5727657 0.91642,0.572766 1.50828,1.489192 V 9.8546521 h 1.85194 v 9.6988369 q 0,1.451008 -0.70641,2.462894 -0.68732,1.011887 -1.89013,1.546468 -1.2028,0.534582 -2.71109,0.534582 -1.66102,0 -2.74928,-0.572766 -1.08825,-0.572766 -1.85194,-1.565561 l 1.18372,-1.107347 q 0.57276,0.801872 1.4701,1.221901 0.91642,0.420028 1.9474,0.420028 0.85915,0 1.58465,-0.324567 0.7446,-0.305476 1.18372,-0.973702 0.43912,-0.649135 0.43912,-1.64193 v -1.527376 q -0.53458,0.897334 -1.4701,1.412823 -0.93552,0.496397 -1.9665,0.496397 z m 0.68732,-1.699205 q 0.47731,0 0.91643,-0.152738 0.43912,-0.17183 0.80187,-0.439121 0.38185,-0.286383 0.64914,-0.630042 0.26729,-0.362752 0.38184,-0.763688 v -2.615631 q -0.2482,-0.649135 -0.70641,-1.12644 -0.45821,-0.496397 -1.03098,-0.763688 -0.57277,-0.267291 -1.16462,-0.267291 -0.68732,0 -1.241,0.305475 -0.53458,0.286383 -0.91642,0.78278 -0.38185,0.477305 -0.59186,1.088256 -0.21001,0.61095 -0.21001,1.260085 0,0.687319 0.2291,1.279177 0.2482,0.591858 0.66823,1.069163 0.42003,0.458213 0.99279,0.725504 0.57277,0.248199 1.2219,0.248199 z"
     id="path12050"
     style="font-weight:600;font-size:19.0922px;line-height:1.25;font-family:Raleway;-inkscape-font-specification:'Raleway Semi-Bold';fill:#ff3b1d" />
  <path
     style="color:#000000;fill:#ff3b1d;stroke-linecap:round;stroke-linejoin:round;-inkscape-stroke:none"
     d="m 2.1484375,22.619141 a 0.25,0.25 0 0 0 -0.25,0.25 0.25,0.25 0 0 0 0.25,0.25 H 76.074219 a 0.25,0.25 0 0 0 0.25,-0.25 0.25,0.25 0 0 0 -0.25,-0.25 z"
     id="path13878" />
  <path
     style="color:#000000;fill:#ffffff;stroke-linecap:round;stroke-linejoin:round;stroke-dasharray:4.8, 4.8;-inkscape-stroke:none"
     d="m 78.740234,3.4296875 a 0.1,0.1 0 0 0 -0.101562,0.1015625 0.1,0.1 0 0 0 0.101562,0.099609 h 4.798828 a 0.1,0.1 0 0 0 0.09961,-0.099609 0.1,0.1 0 0 0 -0.09961,-0.1015625 z m 9.59961,0 a 0.1,0.1 0 0 0 -0.09961,0.1015625 0.1,0.1 0 0 0 0.09961,0.099609 h 4.798828 A 0.1,0.1 0 0 0 93.240234,3.53125 0.1,0.1 0 0 0 93.138672,3.4296875 Z m 9.599609,0 a 0.1,0.1 0 0 0 -0.09961,0.1015625 0.1,0.1 0 0 0 0.09961,0.099609 h 4.800777 a 0.1,0.1 0 0 0 0.0996,-0.099609 0.1,0.1 0 0 0 -0.0996,-0.1015625 z m 9.599607,0 a 0.1,0.1 0 0 0 -0.0996,0.1015625 0.1,0.1 0 0 0 0.0996,0.099609 h 4.80078 a 0.1,0.1 0 0 0 0.0996,-0.099609 0.1,0.1 0 0 0 -0.0996,-0.1015625 z m 9.59961,0 a 0.1,0.1 0 0 0 -0.0996,0.1015625 0.1,0.1 0 0 0 0.0996,0.099609 h 4.80078 a 0.1,0.1 0 0 0 0.0996,-0.099609 0.1,0.1 0 0 0 -0.0996,-0.1015625 z m 6.80664,2.7949219 a 0.1,0.1 0 0 0 -0.10156,0.1015625 V 11.125 a 0.1,0.1 0 0 0 0.10156,0.09961 0.1,0.1 0 0 0 0.0996,-0.09961 V 6.3261719 a 0.1,0.1 0 0 0 -0.0996,-0.1015625 z M 78.740234,7.2539062 a 0.1,0.1 0 0 0 -0.101562,0.1015625 v 4.7988283 a 0.1,0.1 0 0 0 0.101562,0.09961 0.1,0.1 0 0 0 0.09961,-0.09961 V 7.3554687 a 0.1,0.1 0 0 0 -0.09961,-0.1015625 z m 45.205076,8.5722658 a 0.1,0.1 0 0 0 -0.10156,0.09961 v 4.798828 a 0.1,0.1 0 0 0 0.10156,0.101563 0.1,0.1 0 0 0 0.0996,-0.101563 v -4.798828 a 0.1,0.1 0 0 0 -0.0996,-0.09961 z m -45.205076,1.029297 a 0.1,0.1 0 0 0 -0.101562,0.09961 v 4.798828 a 0.1,0.1 0 0 0 0.101562,0.101563 0.1,0.1 0 0 0 0.09961,-0.101563 v -4.798828 a 0.1,0.1 0 0 0 -0.09961,-0.09961 z m 1.515625,8.082031 a 0.1,0.1 0 0 0 -0.09961,0.09961 0.1,0.1 0 0 0 0.09961,0.09961 h 4.800782 a 0.1,0.1 0 0 0 0.09961,-0.09961 0.1,0.1 0 0 0 -0.09961,-0.09961 z m 9.601563,0 a 0.1,0.1 0 0 0 -0.101563,0.09961 0.1,0.1 0 0 0 0.101563,0.09961 h 4.798828 a 0.1,0.1 0 0 0 0.09961,-0.09961 0.1,0.1 0 0 0 -0.09961,-0.09961 z m 9.599609,0 a 0.1,0.1 0 0 0 -0.09961,0.09961 0.1,0.1 0 0 0 0.09961,0.09961 h 4.798829 a 0.1,0.1 0 0 0 0.10156,-0.09961 0.1,0.1 0 0 0 -0.10156,-0.09961 z m 9.599609,0 a 0.1,0.1 0 0 0 -0.0996,0.09961 0.1,0.1 0 0 0 0.0996,0.09961 h 4.80078 a 0.1,0.1 0 0 0 0.0996,-0.09961 0.1,0.1 0 0 0 -0.0996,-0.09961 z m 9.59961,0 a 0.1,0.1 0 0 0 -0.0996,0.09961 0.1,0.1 0 0 0 0.0996,0.09961 h 4.80078 a 0.1,0.1 0 0 0 0.0996,-0.09961 0.1,0.1 0 0 0 -0.0996,-0.09961 z"
     id="rect17918" />
</svg>
